<?xml version="1.0" standalone="no"?>
<!DOCTYPE svg PUBLIC "-//W3C//DTD SVG 20010904//EN"
 "http://www.w3.org/TR/2001/REC-SVG-20010904/DTD/svg10.dtd">
<svg version="1.0" xmlns="http://www.w3.org/2000/svg"
 width="260.000000pt" height="260.000000pt" viewBox="0 0 260.000000 260.000000"
 preserveAspectRatio="xMidYMid meet">
<metadata>
Created by potrace 1.11, written by Peter Selinger 2001-2013
</metadata>
<g transform="translate(0.000000,260.000000) scale(0.100000,-0.100000)"
fill="#000000" stroke="none">
<path d="M0 1300 l0 -1300 1300 0 1300 0 0 1300 0 1300 -1300 0 -1300 0 0
-1300z m1885 987 c11 -8 52 -24 92 -35 39 -12 100 -38 135 -58 34 -20 79 -42
98 -49 25 -8 36 -19 38 -36 2 -13 17 -43 34 -67 16 -24 43 -72 59 -108 26 -56
33 -64 57 -64 52 0 59 -14 29 -57 -26 -37 -27 -45 -27 -162 0 -67 -5 -154 -11
-194 l-11 -71 37 -32 c43 -36 42 -60 -2 -69 -52 -12 -74 -25 -91 -56 -71 -129
-149 -247 -294 -443 -21 -28 -38 -54 -38 -58 0 -4 38 -64 85 -134 47 -70 84
-132 82 -138 -7 -20 -47 -7 -108 35 -69 47 -156 89 -183 89 -11 0 -71 -33
-135 -74 -64 -40 -139 -85 -166 -99 -47 -23 -281 -116 -335 -132 -43 -13 -63
-33 -105 -102 -56 -91 -76 -92 -90 -3 l-11 65 -114 6 c-146 8 -242 29 -336 75
l-75 37 -34 -19 c-42 -22 -53 -14 -37 29 17 48 16 54 -22 101 -33 40 -61 94
-53 103 3 2 28 -19 58 -48 51 -49 54 -51 97 -44 43 6 44 6 38 -18 -12 -48 49
-78 209 -102 96 -15 117 -15 165 -3 43 10 54 17 52 31 -6 33 17 57 53 57 46 0
53 17 20 44 l-28 23 6 191 c4 104 10 198 13 206 8 22 51 31 69 16 10 -8 15
-31 15 -63 0 -46 2 -50 15 -36 9 8 18 33 21 55 11 84 7 79 110 113 53 18 103
30 110 27 8 -3 14 -20 14 -40 0 -29 3 -34 18 -29 21 7 61 53 62 70 0 7 -6 16
-14 20 -7 4 -18 18 -25 31 -15 29 -101 72 -144 72 -18 0 -41 6 -51 13 -18 13
-17 15 2 53 11 21 34 49 51 62 19 14 31 31 31 45 0 28 -54 83 -97 98 -40 13
-49 39 -28 79 17 34 74 66 99 57 9 -4 18 -24 22 -48 15 -92 380 -439 463 -439
32 0 165 116 234 204 36 45 30 63 -28 98 -53 32 -57 53 -13 76 46 24 79 59 72
75 -3 8 -24 18 -47 23 l-42 9 -14 168 c-12 153 -12 170 3 186 13 14 14 24 6
45 -5 15 -10 41 -10 58 0 21 -6 31 -20 35 -11 3 -21 4 -23 2 -2 -2 -20 8 -40
24 -34 26 -39 27 -94 18 -91 -15 -125 20 -91 94 17 39 -2 47 -94 41 -43 -3
-78 -2 -78 3 0 18 78 39 170 46 52 4 111 13 130 20 47 17 62 17 85 2z m-482
-63 c3 -4 -1 -17 -9 -30 -21 -31 -9 -47 30 -40 76 16 71 22 68 -88 -3 -114
-10 -128 -76 -145 -23 -6 -54 -19 -68 -30 -22 -18 -27 -19 -44 -6 -23 17 -66
19 -81 4 -23 -23 -30 2 -11 40 11 22 23 61 26 87 6 39 12 49 30 54 28 6 62 56
62 90 0 47 48 89 73 64z m-779 -853 c4 -5 0 -36 -8 -68 -7 -32 -11 -73 -8 -91
5 -38 -13 -43 -49 -13 l-23 19 18 58 c10 33 22 69 27 82 9 22 33 30 43 13z
m-154 -136 c0 -14 -4 -25 -10 -25 -5 0 -10 11 -10 25 0 14 5 25 10 25 6 0 10
-11 10 -25z m-133 -40 c-7 -16 -37 -21 -37 -5 0 10 32 31 39 25 2 -2 1 -11 -2
-20z m111 -22 c-3 -30 -25 -42 -34 -19 -6 17 11 46 28 46 5 0 8 -12 6 -27z
m62 -3 c0 -5 -4 -10 -10 -10 -5 0 -10 5 -10 10 0 6 5 10 10 10 6 0 10 -4 10
-10z m-206 -338 c2 -4 -2 -22 -9 -40 -17 -38 -55 -46 -55 -10 0 37 48 75 64
50z"/>
<path d="M1182 635 c-23 -58 -29 -111 -13 -100 17 10 54 136 44 146 -6 6 -18
-11 -31 -46z"/>
<path d="M1310 1990 c0 -5 5 -10 10 -10 6 0 10 5 10 10 0 6 -4 10 -10 10 -5 0
-10 -4 -10 -10z"/>
</g>
</svg>
